<svg width="392" height="512" viewBox="0 0 392 512" fill="none" xmlns="http://www.w3.org/2000/svg">
<path d="M346.17 0H45.604C20.406 0.008 0 20.413 0 45.603V466.397C0 491.587 20.405 511.992 45.603 512H346.17C371.352 511.992 391.758 491.587 391.773 466.397V45.603C391.758 20.413 371.352 0.008 346.17 0ZM366.899 466.397C366.883 477.838 357.603 487.102 346.17 487.126H45.604C34.155 487.102 24.892 477.838 24.875 466.397V45.603C24.891 34.162 34.155 24.898 45.604 24.874H346.171C357.604 24.898 366.884 34.162 366.9 45.603V466.397H366.899Z" fill="#4B4B4B"/>
<path d="M105.717 406.284H45.604V466.397H105.717V406.284Z" fill="#4B4B4B"/>
<path d="M225.943 406.284H165.83V466.397H225.943V406.284Z" fill="#4B4B4B"/>
<path d="M346.171 406.284H286.057V466.397H346.171V406.284Z" fill="#4B4B4B"/>
<path d="M105.717 286.057H45.604V346.17H105.717V286.057Z" fill="#4B4B4B"/>
<path d="M225.943 286.057H165.83V346.17H225.943V286.057Z" fill="#4B4B4B"/>
<path d="M346.171 286.057H286.057V346.17H346.171V286.057Z" fill="#4B4B4B"/>
<path d="M165.831 346.17H105.717V406.284H165.831V346.17Z" fill="#4B4B4B"/>
<path d="M286.057 346.17H225.944V406.284H286.057V346.17Z" fill="#4B4B4B"/>
<path d="M105.717 165.83H45.604V225.943H105.717V165.83Z" fill="#4B4B4B"/>
<path d="M225.943 165.83H165.83V225.943H225.943V165.83Z" fill="#4B4B4B"/>
<path d="M346.171 165.83H286.057V225.943H346.171V165.83Z" fill="#4B4B4B"/>
<path d="M165.831 225.943H105.717V286.057H165.831V225.943Z" fill="#4B4B4B"/>
<path d="M286.057 225.943H225.944V286.057H286.057V225.943Z" fill="#4B4B4B"/>
<path d="M105.717 45.603H45.604V105.716H105.717V45.603Z" fill="#4B4B4B"/>
<path d="M225.943 45.603H165.83V105.716H225.943V45.603Z" fill="#4B4B4B"/>
<path d="M346.171 45.603H286.057V105.716H346.171V45.603Z" fill="#4B4B4B"/>
<path d="M165.831 105.716H105.717V165.83H165.831V105.716Z" fill="#4B4B4B"/>
<path d="M286.057 105.716H225.944V165.83H286.057V105.716Z" fill="#4B4B4B"/>
</svg>
